<svg xmlns="http://www.w3.org/2000/svg" xmlns:svg="http://www.w3.org/2000/svg" xmlns:xlink="http://www.w3.org/1999/xlink" id="svg2" width="256" height="256" version="1.0"><metadata/><rect id="rect4" width="256" height="170.667" x="0" y="42.333" style="fill:#de2910"/><path id="star" d="M 27.690213,105.63795 L 33.364238,87.992514 L 18.453333,77.053393 L 36.920253,77.018993 L 42.673958,59.399659 L 48.413116,77.023793 L 66.88,77.073593 L 51.960073,88.000314 L 57.619538,105.65045 L 42.659359,94.779327 L 27.690213,105.63795 L 27.690213,105.63795 z" style="fill:#ffde00"/><use id="use7" width="3000" height="2000" x="0" y="0" transform="matrix(0.3128368,0.1151017,-0.1151013,0.3128368,81.815407,87.649317)" xlink:href="#star"/><use id="use9" width="3000" height="2000" x="0" y="0" transform="matrix(0.3330938,-1.2796198e-2,1.2796148e-2,0.3330938,87.130954,74.29826)" xlink:href="#star"/><use id="use11" width="3000" height="2000" x="0" y="0" transform="matrix(0.2988346,-0.1476936,0.147693,0.2988346,77.058704,57.361021)" xlink:href="#star"/><use id="use13" width="3000" height="2000" x="0" y="0" transform="matrix(0.3070677,0.1297109,-0.1297105,0.3070677,83.21088,27.749418)" xlink:href="#star"/></svg>